

<svg width="30" height="28" viewBox="0 0 30 28" fill="none" xmlns="http://www.w3.org/2000/svg">
<path fill-rule="evenodd" clip-rule="evenodd" d="M2.27629 0.333374C1.49388 0.333374 0.859619 0.967637 0.859619 1.75004C0.859619 2.53244 1.49388 3.16671 2.27629 3.16671H3.89423L6.53934 20.3599C6.55783 20.4955 6.59551 20.625 6.64956 20.7456C6.82214 21.1306 7.16157 21.4245 7.57584 21.5354C7.70057 21.5689 7.83127 21.5856 7.96496 21.5834H20.463C22.9022 21.5834 25.0676 20.0226 25.8389 17.7087L29.1202 7.8647C29.2642 7.43269 29.1918 6.95779 28.9255 6.58837C28.6593 6.21895 28.2317 6.00004 27.7763 6.00004H7.1968L6.50981 1.53463C6.40349 0.843531 5.80884 0.333374 5.10962 0.333374H2.27629ZM7.6327 8.83337L9.15834 18.75L20.463 18.75C21.6826 18.75 22.7653 17.9697 23.151 16.8127L25.8108 8.83337H7.6327Z" fill="#1B153D"/>
<path d="M8.65129 27.25C9.82489 27.25 10.7763 26.2986 10.7763 25.125C10.7763 23.9514 9.82489 23 8.65129 23C7.47768 23 6.52629 23.9514 6.52629 25.125C6.52629 26.2986 7.47768 27.25 8.65129 27.25Z" fill="#1B153D"/>
<path d="M26.3596 25.125C26.3596 26.2986 25.4082 27.25 24.2346 27.25C23.061 27.25 22.1096 26.2986 22.1096 25.125C22.1096 23.9514 23.061 23 24.2346 23C25.4082 23 26.3596 23.9514 26.3596 25.125Z" fill="#1B153D"/>
</svg>
