<svg width="38" height="38" viewBox="0 0 38 38" fill="none" xmlns="http://www.w3.org/2000/svg">
<path d="M37.5011 35.3018L36.5412 29.0604V17.9599C36.5412 16.2451 35.5379 14.7643 34.09 14.0614C35.1961 13.2749 35.9219 11.9861 35.9219 10.5282C35.9219 8.13832 33.9773 6.19308 31.5867 6.19308C29.1962 6.19308 27.2516 8.13832 27.2516 10.5282C27.2516 11.9861 27.9774 13.2749 29.0835 14.0614C28.2369 14.4726 27.5433 15.1483 27.1135 15.9837L20.8764 22.2201C20.1785 22.9187 20.1605 24.036 20.8095 24.7649L19.2006 26.3738L16.104 23.2773V16.7213H17.3426C17.6845 16.7213 17.962 16.4445 17.962 16.102V13.0055C17.962 12.663 17.6845 12.3862 17.3426 12.3862H15.4847V9.90893C15.4847 7.95191 13.9631 6.34729 12.0408 6.2067C12.6396 5.54714 13.0075 4.67454 13.0075 3.71585C13.0075 1.66656 11.3409 0 9.29165 0C7.24236 0 5.5758 1.66656 5.5758 3.71585C5.5758 4.67454 5.94367 5.54714 6.54254 6.2067C4.62021 6.34729 3.09857 7.95191 3.09857 9.90893V12.3862H0.621338V13.6248H3.71788H14.8654H16.7233V15.4827H15.4847C15.1429 15.4827 14.8654 15.7595 14.8654 16.102V23.2773L8.41595 29.7268H0.621338V30.9654H7.17733L6.37656 31.7662C6.13442 32.0083 6.13442 32.3997 6.37656 32.6419L10.5303 36.7956V37.7778H11.7689V36.7956L20.2577 28.3067C20.4999 28.0646 20.4999 27.6732 20.2577 27.431L20.0763 27.2495L21.8791 25.4467C22.0147 25.4777 22.154 25.4981 22.2965 25.4981C22.7926 25.4981 23.2595 25.3049 23.61 24.9538L26.6323 21.9322V29.1075V30.7777L23.6546 35.2442C23.3958 35.6325 23.3159 36.1143 23.4354 36.5658C23.5555 37.0173 23.8633 37.3963 24.2838 37.6062C24.5093 37.7183 24.7613 37.7778 25.0128 37.7778H26.0922C26.6378 37.7778 27.1444 37.5065 27.4473 37.0526L30.8634 31.9284C30.9309 31.8269 30.9674 31.7067 30.9674 31.5847V29.7268H32.294L33.252 35.9558C33.4149 37.0117 34.3086 37.7778 35.3763 37.7778H35.3775C36.0055 37.7778 36.6 37.5047 37.0088 37.0278C37.4175 36.5509 37.5971 35.9223 37.5011 35.3018ZM9.29165 1.23862C10.6578 1.23862 11.7689 2.34965 11.7689 3.71585C11.7689 5.08204 10.6578 6.19308 9.29165 6.19308C7.92545 6.19308 6.81442 5.08204 6.81442 3.71585C6.81442 2.34965 7.92545 1.23862 9.29165 1.23862ZM14.2461 12.3862H12.3882V9.90893H11.1496V12.3862H7.43372V9.90893H6.19511V12.3862H4.33718V9.90893C4.33718 8.54273 5.44822 7.43169 6.81442 7.43169H11.7689C13.1351 7.43169 14.2461 8.54273 14.2461 9.90893V12.3862ZM11.1496 35.6635L7.69012 32.204L9.11019 30.7839L15.4847 24.4094L18.9442 27.8689L11.1496 35.6635ZM28.4902 10.5282C28.4902 8.8208 29.8793 7.43169 31.5867 7.43169C33.2942 7.43169 34.6833 8.8208 34.6833 10.5282C34.6833 11.1686 34.4882 11.7638 34.1538 12.258C33.7301 12.0585 33.4446 11.6356 33.4446 11.1475H32.206C32.206 11.965 32.6067 12.6902 33.2316 13.1417C32.7535 13.4433 32.1924 13.6248 31.5867 13.6248C29.8793 13.6248 28.4902 12.2357 28.4902 10.5282ZM22.735 24.0781C22.5015 24.3128 22.0934 24.3128 21.8593 24.0781L21.7534 23.9715C21.5118 23.73 21.5118 23.3374 21.7534 23.0958L26.6323 18.2169V20.1808L22.735 24.0781ZM29.7288 31.3971L26.4167 36.3651C26.3443 36.4748 26.2229 36.5392 26.0916 36.5392H25.0122C24.9515 36.5392 24.8914 36.5255 24.835 36.4971C24.6982 36.4289 24.6492 36.3119 24.6325 36.2487C24.6158 36.1855 24.6003 36.0592 24.6852 35.9316L27.7668 31.3091C27.8343 31.2075 27.8709 31.0874 27.8709 30.9654V29.7268H29.7288V31.3971ZM32.8253 28.4882H30.3481H27.8709V20.4372V17.9599C27.8709 17.7667 27.8938 17.5791 27.9279 17.3957C27.9334 17.366 27.9365 17.3363 27.9433 17.3072C27.978 17.1455 28.0294 16.9907 28.0889 16.8396C28.1093 16.7882 28.1298 16.7368 28.1527 16.686C28.6401 15.614 29.7152 14.8634 30.9674 14.8634H32.206C33.9135 14.8634 35.3026 16.2525 35.3026 17.9599V28.4882H32.8253ZM36.0687 36.2208C35.8953 36.4227 35.6426 36.5392 35.3763 36.5392C34.9236 36.5392 34.5452 36.2146 34.4764 35.7669L33.5475 29.7268H35.3911L36.278 35.4907C36.3176 35.7526 36.2414 36.0196 36.0687 36.2208Z" fill="#1B153D"/>
</svg>
