<svg width="39" height="39" viewBox="0 0 39 39" fill="none" xmlns="http://www.w3.org/2000/svg">
<g clip-path="url(#clip0_20_895)">
<path d="M22.5439 7.52778H13.0994C12.7736 7.52778 12.5092 7.79222 12.5092 8.11805V8.77326C12.0824 8.33705 11.56 7.99823 10.9768 7.78396C11.9106 7.02604 12.5092 5.87028 12.5092 4.57639H14.8703V3.39583H12.335C11.8256 1.69111 10.2454 0.444443 8.37721 0.444443C6.09874 0.444443 4.24526 2.29792 4.24526 4.57639C4.24526 5.87028 4.84381 7.02604 5.77763 7.78396C4.19745 8.36479 3.06471 9.88062 3.06471 11.6597V18.1528C3.06471 19.6043 3.48971 21.0133 4.24526 22.2222V28.6385L0.765577 35.5973C0.628042 35.8729 0.725438 36.2088 0.989883 36.3676L3.94127 38.1384C4.03631 38.1951 4.14138 38.2222 4.24467 38.2222C4.44301 38.2222 4.63662 38.1225 4.74818 37.9412L9.4704 30.2676C9.51467 30.1956 9.54301 30.1153 9.55363 30.0315L9.91724 27.1285L12.5092 29.0729V37.6319C12.5092 37.9578 12.7736 38.2222 13.0994 38.2222H16.6411C16.9669 38.2222 17.2314 37.9578 17.2314 37.6319V26.4167C17.2314 26.272 17.1782 26.1327 17.0826 26.0241L12.5092 20.8799V20.5139H17.8217C19.449 20.5139 20.773 19.1899 20.773 17.5625V16.9722H22.5439C22.8697 16.9722 23.1342 16.7078 23.1342 16.3819V8.11805C23.1342 7.79222 22.8697 7.52778 22.5439 7.52778ZM18.4119 8.70833V11.0694H17.2314V8.70833H18.4119ZM8.37721 1.625C9.58433 1.625 10.6214 2.35517 11.0783 3.39583H5.6761C6.13297 2.35517 7.17009 1.625 8.37721 1.625ZM5.42582 4.57639H11.3286C11.3286 6.20378 10.0046 7.52778 8.37721 7.52778C6.74981 7.52778 5.42582 6.20378 5.42582 4.57639ZM8.39787 29.7582L4.0487 36.8256L2.06655 35.6362L5.36384 29.0416C5.40457 28.9602 5.42582 28.8693 5.42582 28.7778V23.686C5.64895 23.9009 5.88388 24.104 6.13415 24.2917L8.82936 26.3128L8.39787 29.7582ZM19.5925 17.5625C19.5925 18.5388 18.798 19.3333 17.8217 19.3333H11.9189C10.9426 19.3333 10.148 18.5388 10.148 17.5625V12.25H8.96749V17.5625C8.96749 18.988 9.98335 20.1804 11.3286 20.4543V21.1042C11.3286 21.2488 11.3817 21.3881 11.4773 21.4967L16.0508 26.641V37.0417H13.6897V28.7778C13.6897 28.5918 13.6023 28.4171 13.4536 28.3056L6.84249 23.3472C5.21627 22.1277 4.24526 20.1857 4.24526 18.1528V11.6597C4.24526 10.0323 5.56926 8.70833 7.19665 8.70833H9.55776C11.1852 8.70833 12.5092 10.0323 12.5092 11.6597V16.3819C12.5092 16.7078 12.7736 16.9722 13.0994 16.9722H19.5925V17.5625ZM21.9536 15.7917H13.6897V11.6597V8.70833H16.0508V11.6597C16.0508 11.9856 16.3153 12.25 16.6411 12.25H19.0022C19.328 12.25 19.5925 11.9856 19.5925 11.6597V8.70833H21.9536V15.7917Z" fill="#1B153D"/>
<path d="M38.4814 1.03472C38.4814 0.708887 38.2169 0.444443 37.8911 0.444443H26.0855C25.7597 0.444443 25.4953 0.708887 25.4953 1.03472V16.3819H24.905C24.5791 16.3819 24.3147 16.6464 24.3147 16.9722V20.5139C24.3147 20.8397 24.5791 21.1042 24.905 21.1042H25.4953V37.6319C25.4953 37.9578 25.7597 38.2222 26.0855 38.2222H37.8911C38.2169 38.2222 38.4814 37.9578 38.4814 37.6319V1.03472ZM26.6758 1.625H37.3008V11.0694H34.8748C35.6421 10.3186 36.1203 9.27382 36.1203 8.11805C36.1203 5.83958 34.2668 3.98611 31.9883 3.98611C29.7098 3.98611 27.8564 5.83958 27.8564 8.11805C27.8564 10.0329 29.168 11.6432 30.9388 12.1095C30.4955 12.626 30.2175 13.2883 30.2175 14.0208V16.3819H26.6758V1.625ZM30.8078 8.70833C30.8078 9.34229 30.466 9.91781 29.9336 10.2295C29.3822 9.69291 29.0369 8.94621 29.0369 8.11805C29.0369 6.49066 30.3609 5.16667 31.9883 5.16667C33.6157 5.16667 34.9397 6.49066 34.9397 8.11805C34.9397 9.74545 33.6157 11.0694 31.9883 11.0694C31.6436 11.0694 31.3178 10.9986 31.0102 10.89C31.6153 10.3422 31.9883 9.55833 31.9883 8.70833H30.8078ZM25.4953 17.5625H30.8078C31.1336 17.5625 31.398 17.2981 31.398 16.9722V14.0208C31.398 13.0445 32.1925 12.25 33.1689 12.25H37.3008V23.2209L34.1847 20.1048C34.6487 19.583 34.9397 18.9042 34.9397 18.1528V15.7917H33.7591V18.1528C33.7591 19.1291 32.9646 19.9236 31.9883 19.9236H25.4953V17.5625ZM26.6758 37.0417V21.1042H31.9883C32.4334 21.1042 32.8519 20.9979 33.2308 20.8202L37.3008 24.8902V37.0417H26.6758Z" fill="#1B153D"/>
<path d="M14.8704 13.4306H16.0509V14.6111H14.8704V13.4306Z" fill="#1B153D"/>
</g>
<defs>
<clipPath id="clip0_20_895">
<rect width="37.7778" height="37.7778" fill="white" transform="translate(0.703613 0.444443)"/>
</clipPath>
</defs>
</svg>
